<?xml version="1.0" encoding="utf-8"?>
<!-- Svg Vector Icons : http://www.onlinewebfonts.com/icon -->
<!DOCTYPE svg PUBLIC "-//W3C//DTD SVG 1.1//EN" "http://www.w3.org/Graphics/SVG/1.1/DTD/svg11.dtd">
<svg version="1.1" xmlns="http://www.w3.org/2000/svg" xmlns:xlink="http://www.w3.org/1999/xlink" x="0px" y="0px" viewBox="0 0 256 256" enable-background="new 0 0 256 256" xml:space="preserve">
<metadata> Svg Vector Icons : http://www.onlinewebfonts.com/icon </metadata>
<g><g><g><path fill="#000000" d="M214.8,42.1C197.4,43,197,43,195.9,44.2c-0.6,0.7-1.3,1.8-1.5,2.6c-0.3,1.2,0.1,1.9,3.8,5.8c2.3,2.4,5.6,5.8,7.4,7.5l3.3,3.1l-42.3,42.3c-23.3,23.3-42.5,42.4-42.8,42.4c-0.3,0-11.9-11.4-25.8-25.3c-17-17-25.9-25.6-27.3-26.3c-2.3-1-4.5-1.2-6.6-0.5c-1.9,0.7-52.6,51.4-53.5,53.4c-1,2.2-0.9,4.5,0.3,6.9c1.1,2.4,4.7,6,6.7,6.7c1.8,0.7,4.9,0.7,6.7,0.1c0.8-0.3,10.8-9.9,22.2-21.3l20.8-20.8l25.5,25.6c17.1,17.2,26.2,25.9,27.5,26.5c2.6,1.2,4.5,1.2,7,0c1.4-0.7,16.7-15.6,48.8-47.8c25.7-25.8,47-46.9,47.3-46.9c0.3,0,3.7,3.2,7.6,7.1c6.8,6.8,7.2,7.1,8.7,6.8c4.2-0.9,4.3-1.1,5.5-25.7c1-19.3,1-21.8,0.3-23.1c-0.4-0.8-1.2-1.6-1.6-1.8C242.7,41,234.4,41.2,214.8,42.1z"/><path fill="#000000" d="M210.1,105.1l-13.4,13.4v48v47.9h17h17v-57.7V98.9l-3.7-3.6l-3.6-3.6L210.1,105.1z"/><path fill="#000000" d="M171,144.1L154.1,161v26.7v26.6h17h17v-43.6c0-24-0.1-43.6-0.1-43.6C188,127.2,180.3,134.8,171,144.1z"/><path fill="#000000" d="M69.5,175.7v38.6h17h17v-21.7V171l-17-17l-17-17V175.7z"/><path fill="#000000" d="M46,155.9c-10.5,10.5-15.4,14.9-16.9,15.6l-2.2,0.9v21.2v21.2h16.8c13,0,16.9-0.1,17-0.7c0.1-0.3,0.2-16.9,0.1-36.7l-0.1-36.1L46,155.9z"/><path fill="#000000" d="M139.9,175.2c-5.9,5.8-8.4,7.3-13.3,8.2c-4.5,0.8-9.2-0.4-13.6-3.3l-1.4-0.9v17.6v17.6h17h17V192c0-12.3-0.1-22.3-0.1-22.3C145.4,169.8,142.9,172.2,139.9,175.2z"/></g></g></g>
</svg>